#!OML:ASF F:\VICON\USERDATA\INSTALL\Justin_Nancy\Justin_Nancy.ASF
:FULLY-SPECIFIED
:DEGREES
81
root 13.2011 15.6401 -3.46829 -9.76144 -25.4545 6.98055
lowerback 18.9714 2.54711 -3.74048
upperback 4.10089 2.53087 -0.214979
thorax -6.33129 1.26277 1.28762
lowerneck -13.7192 -7.22083 -12.3937
upperneck 17.4745 -8.80099 7.78685
head 8.61558 -4.25459 3.59592
rclavicle 4.97956e-014 -1.51076e-014
rhumerus -47.5746 15.6596 -88.127
rradius 107.225
rwrist -16.2287
rhand -8.75908 20.1903
rfingers 7.12502
rthumb 17.1783 -9.0704
lclavicle 4.97956e-014 -1.51076e-014
lhumerus -44.9267 -3.78241 90.3717
lradius 100.641
lwrist 16.8746
lhand -20.8176 6.34282
lfingers 7.12502
lthumb 5.55044 36.2501
rfemur -47.0893 -15.765 17.6964
rtibia 50.8373
rfoot 9.6365 9.6526
rtoes 4.46893
lfemur -14.2671 -4.86168 -1.48843
ltibia 38.2419
lfoot -10.2344 0.0345981
ltoes -26.352
82
root 13.1261 15.4964 -3.18222 -10.8215 -26.0009 8.08616
lowerback 19.1541 2.60115 -4.72239
upperback 4.20336 2.3866 -0.34923
thorax -6.3414 1.20359 1.73142
lowerneck -13.2294 -7.62577 -12.7492
upperneck 17.0971 -9.40064 8.13809
head 8.50255 -4.53747 3.70178
rclavicle 1.61016e-014 -1.43125e-014
rhumerus -46.5876 15.6201 -88.3448
rradius 106.713
rwrist -16.1445
rhand -9.35701 20.1026
rfingers 7.12502
rthumb 16.6028 -9.20724
lclavicle 1.61016e-014 -1.43125e-014
lhumerus -44.3103 -4.75033 91.6036
lradius 99.6604
lwrist 16.7664
lhand -20.8495 5.7633
lfingers 7.12502
lthumb 5.51969 35.6714
rfemur -48.0399 -15.6934 17.7992
rtibia 52.8434
rfoot 8.47476 9.28329
rtoes 5.39961
lfemur -13.3102 -3.76004 -2.33377
ltibia 40.0437
lfoot -12.5639 -0.422569
ltoes -28.6433
83
root 13.0326 15.3698 -2.91036 -11.5948 -26.1563 9.44944
lowerback 18.9011 2.50077 -5.9978
upperback 4.14158 2.00466 -0.551417
thorax -6.27882 1.03622 2.33633
lowerneck -12.1101 -8.01423 -13.5184
upperneck 16.3286 -10.0075 8.76092
head 8.19009 -4.84277 3.98363
rclavicle 2.67365e-014 2.38542e-014
rhumerus -45.5157 15.7149 -88.7028
rradius 106.3
rwrist -16.0937
rhand -9.74025 19.7444
rfingers 7.12502
rthumb 16.2338 -9.59593
lclavicle 2.67365e-014 2.38542e-014
lhumerus -43.5768 -5.62235 92.7358
lradius 98.6914
lwrist 16.7006
lhand -20.7868 5.59598
lfingers 7.12502
lthumb 5.58022 35.5025
rfemur -49.1299 -15.2914 17.1475
rtibia 55.1424
rfoot 7.7416 8.23378
rtoes 11.0419
lfemur -12.6756 -2.8773 -3.44619
ltibia 41.382
lfoot -15.7209 -2.61113
ltoes -29.537
84
root 12.9293 15.2479 -2.62266 -12.2492 -26.048 10.5981
lowerback 18.5083 2.24489 -7.02206
upperback 4.11912 1.48991 -0.728924
thorax -6.06507 0.795181 2.85842
lowerneck -10.8674 -8.16574 -14.1619
upperneck 15.3232 -10.3653 9.61682
head 7.76342 -5.01033 4.36417
rclavicle -4.29375e-014 6.36111e-015
rhumerus -44.5665 15.9574 -89.2555
rradius 106.343
rwrist -16.1321
rhand -11.248 18.7842
rfingers 7.12502
rthumb 14.7816 -10.6686
lclavicle -4.29375e-014 6.36111e-015
lhumerus -42.9138 -6.34002 93.8801
lradius 97.9348
lwrist 16.2556
lhand -20.0687 4.98159
lfingers 7.12502
lthumb 6.27348 34.8687
rfemur -50.06 -15.009 16.5307
rtibia 57.4444
rfoot 6.56905 7.96227
rtoes 12.0657
lfemur -11.7759 -2.19777 -4.42644
ltibia 42.3298
lfoot -18.2568 -4.22645
ltoes -29.4762
85
root 12.8185 15.1506 -2.33903 -12.6315 -25.9575 11.1905
lowerback 18.1247 1.93663 -7.28319
upperback 4.13149 1.05605 -0.947627
thorax -5.80166 0.578239 2.8799
lowerneck -9.41302 -8.21744 -14.5048
upperneck 13.9703 -10.6868 10.7395
head 7.19077 -5.13793 4.79914
rclavicle 4.33351e-014 1.11319e-014
rhumerus -44.0003 15.6824 -90.0301
rradius 106.431
rwrist -16.3273
rhand -12.7713 18.5376
rfingers 7.12502
rthumb 13.3136 -11.0171
lclavicle 4.33351e-014 1.11319e-014
lhumerus -42.0313 -7.60452 94.7795
lradius 97.1717
lwrist 15.9467
lhand -19.656 4.85669
lfingers 7.12502
lthumb 6.6719 34.7316
rfemur -50.6722 -14.5053 16.1617
rtibia 59.8553
rfoot 5.18261 7.38974
rtoes 14.5126
lfemur -10.7386 -1.52118 -4.91425
ltibia 42.9506
lfoot -20.0314 -4.4739
ltoes -30.1963
86
root 12.7009 15.0714 -2.06346 -12.9217 -25.8824 11.5498
lowerback 17.7272 1.63224 -7.22063
upperback 4.23053 0.691518 -1.19986
thorax -5.44121 0.384654 2.66301
lowerneck -15.9059 -9.6788 -12.3958
upperneck 20.1203 -12.1056 7.52724
head 10.2874 -5.76175 2.92527
rclavicle 2.90226e-014 -1.11319e-014
rhumerus -43.4206 15.2544 -90.8493
rradius 106.656
rwrist -16.3744
rhand -13.2612 18.5678
rfingers 7.12502
rthumb 12.8414 -11.0172
lclavicle 2.90226e-014 -1.11319e-014
lhumerus -40.7397 -9.27435 95.4216
lradius 96.3166
lwrist 15.8958
lhand -19.4003 5.30961
lfingers 7.12502
lthumb 6.91872 35.1765
rfemur -51.1353 -13.9476 16.0091
rtibia 62.086
rfoot 3.69604 7.04105
rtoes 14.4636
lfemur -9.58912 -1.06984 -5.18033
ltibia 43.3794
lfoot -21.8725 -2.99821
ltoes -32.4352
87
root 12.5767 15.0164 -1.798 -12.854 -25.7058 11.2613
lowerback 17.4383 1.18243 -6.72226
upperback 4.10575 0.221418 -1.09076
thorax -5.37503 0.152371 2.60342
lowerneck -15.354 -9.88444 -12.3836
upperneck 20.1373 -12.4529 7.42719
head 10.2213 -5.94827 2.85162
rclavicle 1.97791e-014 -1.51076e-014
rhumerus -43.1333 15.0927 -91.4543
rradius 107.106
rwrist -16.3346
rhand -12.8887 18.4416
rfingers 7.12502
rthumb 13.2005 -11.1205
lclavicle 1.97791e-014 -1.51076e-014
lhumerus -39.8885 -10.4479 96.384
lradius 95.578
lwrist 15.6843
lhand -19.2493 5.49598
lfingers 7.12502
lthumb 7.06448 35.3581
rfemur -51.3792 -13.2737 16.2185
rtibia 64.1889
rfoot 2.17643 6.79536
rtoes 14.1972
lfemur -8.5404 -0.891542 -4.74901
ltibia 43.6441
lfoot -22.8804 -2.11275
ltoes -30.344
88
root 12.4422 14.9826 -1.54021 -12.7257 -25.1952 10.9452
lowerback 17.3188 0.691158 -6.29964
upperback 3.878 -0.333038 -0.928493
thorax -5.50613 -0.111979 2.65795
lowerneck -13.9114 -10.0677 -12.6293
upperneck 19.5594 -12.8333 7.56936
head 9.81916 -6.17236 2.93966
rclavicle 8.94531e-016 6.36111e-015
rhumerus -43.1352 14.5658 -92.1425
rradius 107.686
rwrist -16.1513
rhand -17.9438 19.8905
rfingers 7.12502
rthumb 8.32461 -9.92543
lclavicle 8.94531e-016 6.36111e-015
lhumerus -39.1071 -11.6738 97.3794
lradius 94.8407
lwrist 15.4466
lhand -19.0001 5.28376
lfingers 7.12502
lthumb 7.30503 35.1377
rfemur -51.4532 -12.7544 16.1811
rtibia 66.1265
rfoot 1.03005 6.95865
rtoes 14.1545
lfemur -7.70315 -1.04129 -4.37752
ltibia 43.7619
lfoot -23.4723 -1.3388
ltoes -34.2238
89
root 12.2928 14.9621 -1.27978 -12.6422 -24.5398 10.845
lowerback 16.9797 0.226967 -5.98914
upperback 3.78296 -0.864172 -0.946207
thorax -5.38297 -0.376029 2.57389
lowerneck -11.3649 -10.4259 -13.7373
upperneck 17.9102 -13.604 8.86271
head 9.04918 -6.56542 3.55132
rclavicle -3.97569e-016 0
rhumerus -43.2707 14.0847 -92.9888
rradius 108.604
rwrist -15.8992
rhand -12.5012 18.7831
rfingers 7.12502
rthumb 13.5739 -10.7544
lclavicle -3.97569e-016 0
lhumerus -38.0233 -13.1663 98.0455
lradius 94.1448
lwrist 15.3824
lhand -18.8875 5.22961
lfingers 7.12502
lthumb 7.41378 35.0797
rfemur -51.4807 -12.4005 15.9298
rtibia 67.9029
rfoot 0.12031 7.89663
rtoes 11.7955
lfemur -6.80167 -1.48408 -4.26866
ltibia 43.6649
lfoot -25.1152 -2.68013
ltoes -35.0972
